<?xml version="1.0" encoding="UTF-8"?>
<svg xmlns="http://www.w3.org/2000/svg" xmlns:xlink="http://www.w3.org/1999/xlink" width="70px" height="70px" viewBox="0 0 70 70" version="1.1">
<g id="surface1">
<path style=" stroke:none;fill-rule:evenodd;fill:rgb(0%,0%,0%);fill-opacity:1;" d="M 48.203125 17.527344 C 50.558594 17.527344 52.472656 19.441406 52.472656 21.796875 L 52.472656 48.203125 C 52.472656 50.558594 50.558594 52.472656 48.203125 52.472656 L 40.9375 52.472656 L 40.9375 39.304688 L 45.480469 39.304688 L 46.347656 33.667969 L 40.9375 33.667969 L 40.9375 30.007812 C 40.9375 28.464844 41.691406 26.960938 44.117188 26.960938 L 46.574219 26.960938 L 46.574219 22.160156 C 46.574219 22.160156 44.34375 21.777344 42.207031 21.777344 C 37.753906 21.777344 34.839844 24.480469 34.839844 29.367188 L 34.839844 33.667969 L 29.886719 33.667969 L 29.886719 39.304688 L 34.839844 39.304688 L 34.839844 52.472656 L 21.796875 52.472656 C 19.441406 52.472656 17.527344 50.558594 17.527344 48.203125 L 17.527344 21.796875 C 17.527344 19.441406 19.441406 17.527344 21.796875 17.527344 Z M 48.203125 17.527344 "/>
</g>
</svg>
