<?xml version="1.0" encoding="utf-8"?>
<!-- Generator: Adobe Illustrator 26.1.0, SVG Export Plug-In . SVG Version: 6.00 Build 0)  -->
<svg version="1.1" xmlns="http://www.w3.org/2000/svg" xmlns:xlink="http://www.w3.org/1999/xlink" x="0px" y="0px"
	 viewBox="0 0 595.3 841.9" style="enable-background:new 0 0 595.3 841.9;" xml:space="preserve">
<style type="text/css">
	.st0{fill:#FFFFFF;}
	.st1{font-family:'AcademyEngravedLetPlain';}
	.st2{font-size:56.47px;}
	.st3{fill:url(#SVGID_1_);stroke:url(#SVGID_00000008859641825579326360000004522122618620045186_);stroke-miterlimit:10;}
	.st4{fill:url(#SVGID_00000070829273800640542750000011588537842548658350_);}
</style>
<g id="Слой_1">
	<g>
		<g>
			<path class="st0" d="M58.6,281.7c0.1,0,0.4,2.1,0.7,4.6s0.4,4.6,0.3,4.6s-0.7-1.3-1.1-3c0,0,0,0-0.4-1c-0.4-1-0.4-1-0.4-1
				c-0.5-0.8-1.6-2.3-2.4-3.3c0,0,0,0-1-0.6c-1-0.6-2-0.9-3.1-0.9c-1.5,0-2.8,0.5-3.8,1.6c-1,1.1-1.5,2.5-1.5,4.2c0,1.9,0,1.9,0,1.9
				c1.1,1.6,2.5,3.4,3.3,4c0,0,0,0,0.8,0.5c0.7,0.5,0.7,0.5,0.7,0.5c1.5,0.9,3.7,2.1,4.8,2.7c0,0,0,0,0.8,0.5
				c0.8,0.5,1.4,0.9,1.8,1.2c0.5,0.4,0.5,0.4,0.5,0.4c0.5,0.5,2.2,3,3.8,5.7c0,0,0,0,0,3.3c0,2.2-0.5,4.2-1.4,5.9
				c-0.9,1.8-2.2,3.1-3.8,4.1c-1.6,1-3.4,1.5-5.4,1.5c-1.4,0-2.9-0.3-4.7-0.8c-1.1-0.3-1.1-0.3-1.1-0.3c-1.7-0.8-3.2-1.5-3.4-1.6
				s-0.4-2.5-0.6-5.4s-0.2-5.2,0-5.2s1,2.4,1.9,5.3c0,0,0,0,1.4,2.2c1.8,2.9,4,4.3,6.5,4.3c1.3,0,2.4-0.3,3.4-1
				c1-0.6,1.8-1.5,2.3-2.6c0.6-1.1,0.8-2.4,0.8-3.8c0-1.3-0.2-2.4-0.7-3.4c-0.4-1-1.1-2-2.1-2.9c-1-0.9-1-0.9-1-0.9
				c-1.7-1-4-2.4-5-3s-3.4-2.3-4.4-3.1c0,0,0,0-0.7-0.9s-1.2-1.8-1.5-2.9c-0.3-1-0.5-2.1-0.5-3.3c0-1.8,0.4-3.5,1.1-5
				c0.7-1.5,1.7-2.7,3-3.6c1.3-0.9,2.7-1.3,4.3-1.3c1,0,1,0,1,0c1.3,0.3,2.6,0.7,2.9,0.9s1.1,0.3,1.6,0.5S58.6,281.7,58.6,281.7z
				 M43,313.2c0.1,1,0.6,2.2,1.2,2.6s1.7,0.4,0.8-0.7c0,0,0,0-0.5-0.7c-0.5-0.7-0.5-0.7-0.5-0.7C43.4,312.4,42.9,312.2,43,313.2z
				 M58.4,314.5c-0.7,0.9,0.3-0.4,2.2-3.1c0,0,0,0,0-3.1c0-1.2-0.2-2.4-0.6-3.5c-0.4-1.1-0.4-1.1-0.4-1.1c-0.7-1-2.6-2.9-4.1-4.4
				c0,0,0,0-2.6-1.4c-2.2-1.2-3.6-2-4.2-2.5c-0.7-0.4-0.7-0.4-0.7-0.4c-0.7-0.7-2.3-2.8-3.4-4.6c0,0,0,0,0-2.2
				c0-0.7,0.1-1.3,0.2-1.8c0.1-0.5,0.3-1.1,0.5-1.6c0.2-0.5,0.2-0.5,0.2-0.5c0.5-0.8-0.5,0.4-2.1,2.7c0,0,0,0,0,2.8
				c0,2.7,0,2.7,0,2.7c1.3,2.1,2.9,4.1,3.4,4.5s2.6,1.8,3.2,2.2c0,0,0,0,2,1.2c2.4,1.4,2.4,1.4,2.4,1.4c1.4,1.3,3.6,4.1,4.8,6.3
				c0,0,0,0,0,2.4c0,1.2-0.2,2.2-0.5,3.1S58.4,314.5,58.4,314.5z"/>
			<path class="st0" d="M76.4,280.9c6.6,0,12.1,2.3,12.4,5.1s0.2,5.1,0.1,5.1s-1.2-2.5-2.1-5.5c0,0,0,0-1.4-1.5
				c-1.4-1.5-1.4-1.5-1.4-1.5c-2.3-0.4-4.4-0.7-4.8-0.7s-2,0.2-3.7,0.5c0,0,0,0-0.8,0.9c-0.8,0.9-0.8,0.9-0.8,0.9
				c-0.2,2-0.4,5.8-0.4,8.4s0.6,4.7,1.4,4.7s3-0.2,5.1-0.4c0,0,0,0,1-0.9c1-0.9,1-0.9,1-0.9c0.6-2.1,1.2-3.9,1.3-3.9s0.3,3.1,0.3,7
				s-0.1,7-0.3,7s-0.6-1.5-1-3.2c0,0,0,0-0.5-1c-0.5-1-1.1-1.6-2-2c-0.8-0.4-0.8-0.4-0.8-0.4c-1.4-0.1-3.3-0.2-4-0.2s-1.4,2.7-1.4,6
				s0.1,7.4,0.1,9.2c0,0,0,0,0.3,1s0.7,1.6,1.4,2s0.7,0.4,0.7,0.4c1.2,0.1,2.5,0.2,3.1,0.2s2.6-0.3,4.7-0.8c0,0,0,0,1.7-1.5
				c1.9-1.7,1.9-1.7,1.9-1.7c2-3,3.7-5.6,3.8-5.6s0.2-0.2,0.5-0.2s-0.2,2.5-0.9,5.6s-6.8,5.6-13.7,5.6s-12.4-0.2-12.4-0.4
				s1.2-0.9,2.6-1.5c0,0,0,0,0.7-1.2c0.5-0.9,0.5-0.9,0.5-0.9c0.1-2.4,0.3-9.1,0.3-14.8s0-11.7-0.1-13.3c0,0,0,0-0.1-0.8
				c-0.1-0.8-0.1-0.8-0.1-0.8c-0.4-0.6-1-1.6-1.5-2s-2.2-1.3-2.2-1.6S69.8,280.9,76.4,280.9z M67.8,316.7c-0.2,0.2,1,0.4,2.7,0.4
				s2.9-0.2,2.7-0.4s-0.8-0.8-1.2-1.2c0,0,0,0-0.1-0.3s-0.2-0.7-0.2-1.2c0-0.3,0-0.5,0-0.6c0-0.1,0-0.1,0-0.1c0-0.1,0-0.3,0-0.5
				s0-6,0-13.1s0-13,0-13.1s0-0.3,0-0.5c0,0,0,0,0-0.1c0-0.1,0-0.3,0-0.6c0-0.6,0.1-1,0.2-1.3c0.1-0.3,0.1-0.3,0.1-0.3
				c0.4-0.4,1-1,1.3-1.3s-1-0.6-2.8-0.6s-3.2,0.3-2.8,0.6s1,1,1.4,1.4c0,0,0,0,0.1,0.3c0.1,0.3,0.2,0.7,0.2,1.2c0,0.3,0,0.3,0,0.3
				c0,0.3,0,0.7,0,0.8s0,6,0,13.1s0,13,0,13.1s0,0.5,0,0.8c0,0,0,0,0,0.3c0,0.6-0.1,1-0.2,1.3c-0.1,0.3-0.1,0.3-0.1,0.3
				C68.6,315.9,68,316.5,67.8,316.7z M81.9,297.9c0-1-0.3-1.4-0.7-1c0,0,0,0-0.2,0.2c-0.2,0.2-0.2,0.2-0.2,0.2
				c-0.6,0.3-0.8,0.8-0.4,1.1S81.9,298.9,81.9,297.9z M87,283.7c-0.1-1-0.9-1.8-1.7-1.8s-0.9,0.4-0.1,0.9c0,0,0,0,0.5,0.5
				c0.5,0.5,0.5,0.5,0.5,0.5C86.7,284.7,87.1,284.7,87,283.7z M85.8,317.1c1.1,0,2.2-1.2,2.5-2.6s0.1-1.9-0.4-1.2c0,0,0,0-0.5,0.6
				c-0.5,0.6-1.1,1.2-1.7,1.7c-0.6,0.5-0.6,0.5-0.6,0.5C84.4,316.7,84.7,317.1,85.8,317.1z"/>
			<path class="st0" d="M103.6,298.7c-1,0-1.8,2.5-1.8,5.7s0,6.9,0.1,8.4c0,0,0,0,0.1,0.8s0.1,0.8,0.1,0.8c0.4,0.7,1.1,1.7,1.6,2.1
				s2.4,1.3,2.4,1.6s-3,0.4-6.7,0.4s-6.7-0.2-6.7-0.4s1.2-0.9,2.6-1.5c0,0,0,0,0.7-1.2c0.5-0.9,0.5-0.9,0.5-0.9
				c0.1-2.4,0.3-9.1,0.3-14.8s0-11.7-0.1-13.3c0,0,0,0-0.1-0.8c-0.1-0.8-0.1-0.8-0.1-0.8c-0.4-0.6-1-1.5-1.5-2s-2.3-1.4-2.3-1.6
				s0.1-0.4,0.2-0.4s0.8,0,1.3,0.1s1.6,0.1,2.5,0.2c0,0,0,0,1,0c1.6,0,1.6,0,1.6,0c1.5-0.1,3.3-0.3,4.1-0.4s2.3-0.2,3.3-0.3
				c0,0,0,0,0.9,0c1.7,0,3.1,0.2,4.4,0.7c1.3,0.4,2.4,1.1,3.3,1.9c0.9,0.8,1.6,1.8,2.1,3c0.5,1.2,0.7,2.6,0.7,4
				c0,2.5-0.6,4.4-1.9,5.8c-1.3,1.4-1.3,1.4-1.3,1.4c-2.4,0.6-3.1,1.9-1.6,3c0,0,0,0,1.1,1.4c1.1,1.4,2.4,3.7,3.9,6.9
				c1.7,3.6,3,6,4,7.4c1,1.4,1,1.4,1,1.4c1.3,0.9,2.3,1.8,2.3,2s-1.3,0.3-2.8,0.2c0,0,0,0-1.1-0.3c-1.1-0.3-2.1-0.9-3.2-1.8
				c-1.3-1.1-2.6-2.5-3.8-4.4c-1.2-1.8-1.2-1.8-1.2-1.8c-1.1-2.5-2.2-5.2-2.5-6s-1-2.6-1.6-4c0,0,0,0-0.4-0.7
				c-0.4-0.7-0.9-1.1-1.5-1.3c-0.6-0.2-0.6-0.2-0.6-0.2C106.2,298.8,104.6,298.7,103.6,298.7z M96.2,316.7c-0.2,0.2,1,0.4,2.7,0.4
				s2.9-0.2,2.7-0.4s-0.8-0.8-1.2-1.2c0,0,0,0-0.1-0.3s-0.2-0.7-0.2-1.2c0-0.3,0-0.5,0-0.6c0-0.1,0-0.1,0-0.1c0-0.1,0-0.3,0-0.5
				s0-6,0-13.1s0-13,0-13.1s0-0.3,0-0.5c0,0,0,0,0-0.1c0-0.1,0-0.3,0-0.6c0-0.5,0.1-0.9,0.2-1.2c0.1-0.3,0.1-0.3,0.1-0.3
				c0.4-0.4,0.7-0.8,0.7-0.8s0.3-0.3,0.7-0.7s0.4-0.6,0.2-0.6s-1.5,0.1-2.8,0.2c0,0,0,0-1,0c-0.6,0-0.6,0-0.6,0
				c-1.1,0-1.7,0.2-1.4,0.4s0.9,0.9,1.3,1.3c0,0,0,0,0.1,0.3s0.2,0.7,0.2,1.3c0,0.3,0,0.3,0,0.3c0,0.3,0,0.7,0,0.8s0,6,0,13.1
				s0,13,0,13.1s0,0.5,0,0.8c0,0,0,0,0,0.3c0,0.6-0.1,1-0.2,1.3c-0.1,0.3-0.1,0.3-0.1,0.3C97,315.9,96.4,316.5,96.2,316.7z
				 M101.8,292.9c0,2.6,0.8,4.8,1.9,4.8s3.6-0.1,5.6-0.3c0,0,0,0,1-0.6c0.9-0.6,1.5-1.5,2-2.7c0.5-1.2,0.7-2.6,0.7-4.1
				c0-1.6-0.3-3.1-0.9-4.4c-0.6-1.3-1.4-2.3-2.4-3c-1-0.7-2.2-1.1-3.5-1.1c-1.9,0-1.9,0-1.9,0c-1.1,1.3-2.1,2.9-2.3,3.5
				S101.8,290.2,101.8,292.9z M118.9,316.6c2.4,1,3.7,1.4,3,0.9c0,0,0,0-0.5-0.4c-0.5-0.4-1-1.1-1.6-1.8c-0.7-1-1.3-1.9-1.7-2.7
				c-0.4-0.8-1.1-2.2-2-4.2c-0.9-2-1.7-3.6-2.4-4.8c-0.7-1.2-1.4-2.2-2.2-2.9c-0.7-0.7-0.7-0.7-0.7-0.7c-0.9-0.6-1.5-0.7-1.2-0.3
				s1,1.8,1.1,2.1s0.9,2.3,1.1,2.7c0,0,0,0,0.1,0.4c0.1,0.4,0.1,0.4,0.1,0.4c0.2,0.4,1.7,3.8,3.4,7.6c0,0,0,0,1.7,2
				C118.9,316.6,118.9,316.6,118.9,316.6z M112.3,296c-1.3,1-1.5,1.5-0.5,1.1c0,0,0,0,0.8-0.5c0.8-0.5,1.4-1.1,1.9-1.8
				c0.5-0.7,0.9-1.4,1.2-2.3c0.3-0.8,0.4-1.7,0.4-2.6c0-2-0.5-3.8-1.6-5.2c-1.1-1.5-1.1-1.5-1.1-1.5c-1.8-0.8-2.6-0.8-1.8-0.1
				c0,0,0,0,0.5,0.8c0.5,0.8,1,1.7,1.2,2.7c0.3,1,0.4,2.1,0.4,3.2c0,2-0.3,3.6-0.9,4.9S112.3,296,112.3,296z"/>
			<path class="st0" d="M152,281.3c0.1,0,0.7,2.2,1.4,4.9s1.1,5,0.9,5s-1.6-2.8-3.3-6.1c0,0,0,0-1.6-1.6s-3.6-2.4-5.8-2.4
				c-1.6,0-3.2,0.5-4.7,1.4c-1.5,0.9-1.5,0.9-1.5,0.9c-1.3,1.7-3.8,6.2-5.5,10.1c0,0,0,0,0,4.8c0,3.6,0.5,6.9,1.6,9.9
				c1.1,2.9,2.5,5.2,4.4,6.9c1.9,1.7,4,2.5,6.2,2.5c1.4,0,2.7-0.3,3.8-0.9c1.1-0.6,1.9-1.4,2.4-2.5c0.4-1,0.4-1,0.4-1
				c0.1-2.1,0.2-4,0.2-4.2s0-1.7-0.1-3.3c0,0,0,0-0.2-0.8c-0.2-0.8-0.2-0.8-0.2-0.8c-0.4-0.7-1.2-1.6-1.8-2.1s-2.7-1.2-2.7-1.4
				s2.9-0.4,6.5-0.4s6.5,0.2,6.5,0.4s-0.9,0.9-2,1.5c0,0,0,0-0.6,1.2c-0.4,0.9-0.4,0.9-0.4,0.9c-0.1,2.4-0.2,5.5-0.2,6.9
				s0.3,3.1,0.6,3.8s0.5,1.3,0.2,1.2c0,0,0,0-0.3,0c-1.1,0-2.1,0.1-3.1,0.4c-1,0.2-2.3,0.7-3.9,1.4c-1.5,0.6-2.8,1.1-3.9,1.3
				s-2.2,0.3-3.4,0.3c-4.6,0-4.6,0-4.6,0c-3.4-2.8-7.3-6.8-8.7-9.1c0,0,0,0-0.8-2.5s-1.2-5.1-1.2-7.7c0-2.7,0.4-5.3,1.2-7.7
				c0.8-2.4,1.9-4.6,3.4-6.4c1.4-1.8,3.1-3.3,5-4.3c1.9-1,4-1.6,6.1-1.6c1.2,0,1.2,0,1.2,0c1.7,0.3,3.4,0.6,3.7,0.6c0,0,0,0,0.3,0.1
				c0.3,0.1,1,0.2,2,0.5c0.5,0.1,0.9,0.2,1.2,0.2c0.1,0,0.2,0,0.3,0C151.5,281.4,151.7,281.3,152,281.3
				C152,281.3,152,281.3,152,281.3z M135.6,317.1c2.5,0.7,3.3,0.7,1.7-0.1c0,0,0,0-1-0.8c-1-0.8-1.9-1.8-2.8-3.1
				c-1.2-1.8-2.1-3.8-2.7-6.1c-0.6-2.3-1-4.8-1-7.3c0-2.2,0.2-4.3,0.7-6.4c0.5-2.1,1.1-3.9,2-5.5c0.9-1.8,0.9-1.8,0.9-1.8
				c1.9-2,1.8-2.4-0.2-0.9c0,0,0,0-1.4,1.8c-1.4,1.8-2.4,3.8-3.2,6.1c-0.7,2.3-1.1,4.7-1.1,7.3c0,3.2,0.5,6.1,1.6,8.8
				c1,2.7,2.5,4.8,4.4,6.5C135.6,317.1,135.6,317.1,135.6,317.1z M152.8,301.1c-1.9,0-3.2,0.3-2.9,0.6s1,1,1.4,1.4c0,0,0,0,0.1,0.3
				c0.1,0.3,0.2,0.7,0.2,1.2c0,0.2,0,0.3,0,0.5c0,0.1,0,0.1,0,0.1c0,0.1,0,0.4,0,0.5s0,1.2,0,2.3s-0.1,3.3-0.1,4.7c0,0,0,0-0.2,0.8
				s-0.2,0.8-0.2,0.8c-0.6,1-0.6,1.5,0.2,1.2s2.7-2.8,2.7-5.2s0-4.5,0-4.6s0-0.5,0-0.8c0,0,0,0,0-0.3c0-0.6,0.1-1,0.2-1.3
				c0.1-0.3,0.1-0.3,0.1-0.3c0.4-0.4,1-1,1.4-1.4S154.7,301.1,152.8,301.1z"/>
			<path class="st0" d="M172.1,280.9c6.6,0,12.1,2.3,12.4,5.1s0.2,5.1,0.1,5.1s-1.2-2.5-2.1-5.5c0,0,0,0-1.4-1.5
				c-1.4-1.5-1.4-1.5-1.4-1.5c-2.3-0.4-4.4-0.7-4.8-0.7s-2,0.2-3.7,0.5c0,0,0,0-0.8,0.9c-0.8,0.9-0.8,0.9-0.8,0.9
				c-0.2,2-0.4,5.8-0.4,8.4s0.6,4.7,1.4,4.7s3-0.2,5.1-0.4c0,0,0,0,1-0.9c1-0.9,1-0.9,1-0.9c0.6-2.1,1.2-3.9,1.3-3.9s0.3,3.1,0.3,7
				s-0.1,7-0.3,7s-0.6-1.5-1-3.2c0,0,0,0-0.5-1c-0.5-1-1.1-1.6-2-2c-0.8-0.4-0.8-0.4-0.8-0.4c-1.4-0.1-3.3-0.2-4-0.2s-1.4,2.7-1.4,6
				s0.1,7.4,0.1,9.2c0,0,0,0,0.3,1s0.7,1.6,1.4,2s0.7,0.4,0.7,0.4c1.2,0.1,2.5,0.2,3.1,0.2s2.6-0.3,4.7-0.8c0,0,0,0,1.7-1.5
				c1.9-1.7,1.9-1.7,1.9-1.7c2-3,3.7-5.6,3.8-5.6s0.2-0.2,0.5-0.2s-0.2,2.5-0.9,5.6s-6.8,5.6-13.7,5.6s-12.4-0.2-12.4-0.4
				s1.2-0.9,2.6-1.5c0,0,0,0,0.7-1.2c0.5-0.9,0.5-0.9,0.5-0.9c0.1-2.4,0.3-9.1,0.3-14.8s0-11.7-0.1-13.3c0,0,0,0-0.1-0.8
				c-0.1-0.8-0.1-0.8-0.1-0.8c-0.4-0.6-1-1.6-1.5-2s-2.2-1.3-2.2-1.6S165.5,280.9,172.1,280.9z M163.5,316.7c-0.2,0.2,1,0.4,2.7,0.4
				s2.9-0.2,2.7-0.4s-0.8-0.8-1.2-1.2c0,0,0,0-0.1-0.3s-0.2-0.7-0.2-1.2c0-0.3,0-0.5,0-0.6c0-0.1,0-0.1,0-0.1c0-0.1,0-0.3,0-0.5
				s0-6,0-13.1s0-13,0-13.1s0-0.3,0-0.5c0,0,0,0,0-0.1c0-0.1,0-0.3,0-0.6c0-0.6,0.1-1,0.2-1.3c0.1-0.3,0.1-0.3,0.1-0.3
				c0.4-0.4,1-1,1.3-1.3s-1-0.6-2.8-0.6s-3.2,0.3-2.8,0.6s1,1,1.4,1.4c0,0,0,0,0.1,0.3c0.1,0.3,0.2,0.7,0.2,1.2c0,0.3,0,0.3,0,0.3
				c0,0.3,0,0.7,0,0.8s0,6,0,13.1s0,13,0,13.1s0,0.5,0,0.8c0,0,0,0,0,0.3c0,0.6-0.1,1-0.2,1.3c-0.1,0.3-0.1,0.3-0.1,0.3
				C164.2,315.9,163.7,316.5,163.5,316.7z M177.6,297.9c0-1-0.3-1.4-0.7-1c0,0,0,0-0.2,0.2c-0.2,0.2-0.2,0.2-0.2,0.2
				c-0.6,0.3-0.8,0.8-0.4,1.1S177.6,298.9,177.6,297.9z M182.7,283.7c-0.1-1-0.9-1.8-1.7-1.8s-0.9,0.4-0.1,0.9c0,0,0,0,0.5,0.5
				c0.5,0.5,0.5,0.5,0.5,0.5C182.4,284.7,182.8,284.7,182.7,283.7z M181.5,317.1c1.1,0,2.2-1.2,2.5-2.6s0.1-1.9-0.4-1.2
				c0,0,0,0-0.5,0.6c-0.5,0.6-1.1,1.2-1.7,1.7c-0.6,0.5-0.6,0.5-0.6,0.5C180.1,316.7,180.4,317.1,181.5,317.1z"/>
			<path class="st0" d="M207.9,294.9c-1.6,2.6-2.9,7.1-2.9,9.9s0,6.5,0.1,8c0,0,0,0,0.2,0.8c0.2,0.8,0.2,0.8,0.2,0.8
				c0.4,0.7,1.2,1.6,1.7,2.1s2.5,1.3,2.5,1.6s-3.2,0.4-7.1,0.4s-7.1-0.2-7.1-0.4s0.7-0.7,1.5-1s2.5-2.2,2.8-2.9c0,0,0,0,0.1-0.7
				c0.1-0.7,0.1-0.7,0.1-0.7c0-1.5,0.1-4.7,0.1-7.3s-1.4-7.4-3.2-10.7s-3.3-6.2-3.3-6.3s-1.1-2-2.4-4.3c0,0,0,0-0.8-0.9
				c-0.8-0.9-0.8-0.9-0.8-0.9c-1-0.4-1.9-0.8-1.9-1.1s3-0.4,6.7-0.4s6.7,0.2,6.7,0.4s-0.1,0.4-0.2,0.4s-1.1,0.1-2.1,0.3
				c0,0,0,0-0.4,0.4c-0.4,0.4-0.6,1-0.6,1.8c0,0.8,0,0.8,0,0.8c0.5,1.2,2.2,4.7,3.9,7.8s4.1,3.9,5.5,1.8s3.2-5.4,4-7.3
				c0,0,0,0,0-1.4c0-1.3-0.4-2.3-1.1-3c-0.7-0.7-0.7-0.7-0.7-0.7c-1.3-0.3-2.4-0.7-2.4-0.9s2.5-0.4,5.6-0.4s5.6,0.2,5.6,0.4
				s-0.6,0.7-1.4,1c0,0,0,0-0.6,0.5c-0.6,0.5-1.2,1.1-1.8,1.8s-0.6,0.7-0.6,0.7c-0.8,1.2-1.7,2.7-2.1,3.2s-0.7,1.2-0.8,1.3
				S209.5,292.3,207.9,294.9z M199.4,316.7c-0.2,0.2,1,0.4,2.7,0.4s2.9-0.2,2.7-0.4s-0.8-0.8-1.2-1.2c0,0,0,0-0.1-0.3
				s-0.2-0.7-0.2-1.2c0-0.3,0-0.5,0-0.6c0-0.1,0-0.1,0-0.1c0-0.1,0-0.3,0-0.5s0-3.1,0-6.7s-1.4-9.1-3.1-12.3s-3.7-7.1-4.3-8.6
				c0,0,0,0,0-1c0-0.5,0.1-1,0.3-1.4c0.2-0.4,0.2-0.4,0.2-0.4c0.4-0.4-0.8-0.7-2.7-0.7s-2.9,0.5-2.3,1.2c0,0,0,0,0.6,0.8
				c0.6,0.8,0.6,0.8,0.6,0.8c1,1.9,1.9,3.5,2,3.7s1.6,3,3.3,6.4s3.2,8.7,3.2,12s0,6.1,0,6.2s0,0.5,0,0.8c0,0,0,0,0,0.3
				c0,0.6-0.1,1-0.2,1.3c-0.1,0.3-0.1,0.3-0.1,0.3C200.2,315.9,199.6,316.5,199.4,316.7z M211.7,284c0.1,1,0.6,1.2,1.2,0.4
				s1-2.5-0.4-2.5s-2,0.4-1.4,1c0,0,0,0,0.3,0.6S211.7,284,211.7,284z"/>
		</g>
	</g>
	<text transform="matrix(0.6102 0 0 1 331.2451 318.4917)" class="st0 st1 st2">GERLOVIN</text>
</g>
<g id="Слой_2">
	<linearGradient id="SVGID_1_" gradientUnits="userSpaceOnUse" x1="156.096" y1="392.3886" x2="383.0708" y2="392.3886">
		<stop  offset="0.4398" style="stop-color:#FFFFFF"/>
		<stop  offset="0.8988" style="stop-color:#B2B2B2"/>
	</linearGradient>
	
		<linearGradient id="SVGID_00000111183979933105905600000015587331518844550073_" gradientUnits="userSpaceOnUse" x1="155.596" y1="392.3675" x2="383.5708" y2="392.3675">
		<stop  offset="0" style="stop-color:#FFFFFF"/>
		<stop  offset="1" style="stop-color:#000000"/>
	</linearGradient>
	
		<path style="fill:url(#SVGID_1_);stroke:url(#SVGID_00000111183979933105905600000015587331518844550073_);stroke-miterlimit:10;" d="
		M241.2,695.8c0,0,26.8,4.6,60.5-0.9c0,0,24.3-1.2,47.4-14c0,0,23.5-13.9,30.1-36.3c0,0,7.2-23,1.8-36.7c0,0-7.1-35.5-19.1-43.4
		c0,0-13.8-16-18.3-26.3s-3-26.3-3-26.3l11.4-35.4c0,0,15.2-59.1-54.4-65.4l-4.2-220.5l0.4-9.2l2.8-2.8c0,0,2.7-18.6,2.7-18.9
		s6.2,0,6.2,0l1.1,0.9l13.4-0.2l-0.1-6.5h-13l-2.1,0.7h-5.1l1.2-28l5.1-0.5l1.2,1.8l11.6-0.1l0.1-7.6h-11.1l-1.3,1.5h-5.1l1.1-28.7
		l-13.4-5.1c0,0-19.2,5.4-29.3-0.6l-13.7,4.2l1,28.6l-6-0.4c0,0,2.8-10.3-11.3-8.1c0,0-5.4,8.4-2,17.7c0,0,9.7,5.1,12.6-3.8l6.2,0.4
		l1.8,28.4l-6.5-0.9c0,0-1.6-8.4-12.5-5.4c0,0-5.4,6.2-1.3,12.1c4,5.9,12.3,0.4,12.3,0.4l7.1-0.2c0,0,1.8,17.7,1.8,18.2
		s2.9,2.2,2.4,2.2c-0.5,0,1.2,231.1,1.2,231.1s-72.7-2.2-62.2,65.3c0,0,14.7,38.5,11.3,49.1c0,0-5.6,22.8-16.1,27.8
		c0,0-68.1,83.3,0,126.6C186.4,680.3,218.6,696.5,241.2,695.8z"/>
	
		<linearGradient id="SVGID_00000110437861047827852820000009451462136532573884_" gradientUnits="userSpaceOnUse" x1="250.3151" y1="487.6396" x2="293.9386" y2="487.6396">
		<stop  offset="0" style="stop-color:#FFFFFF"/>
		<stop  offset="1" style="stop-color:#000000"/>
	</linearGradient>
	
		<ellipse style="fill:url(#SVGID_00000110437861047827852820000009451462136532573884_);" cx="272.1" cy="487.6" rx="21.8" ry="17.4"/>
</g>
</svg>
