<svg width="45" height="45" viewBox="0 0 45 45" fill="none" xmlns="http://www.w3.org/2000/svg">
<g clip-path="url(#clip0_50_420)">
<path d="M44.0625 12.2006C43.8077 11.2917 43.3114 10.4688 42.6262 9.8194C41.9218 9.15003 41.0584 8.67121 40.1175 8.42815C36.5962 7.50002 22.4887 7.50002 22.4887 7.50002C16.6075 7.43311 10.7277 7.72741 4.8825 8.38127C3.9416 8.6423 3.0798 9.13181 2.37375 9.80627C1.68 10.4738 1.1775 11.2969 0.914997 12.1988C0.284422 15.5958 -0.0219549 19.045 -2.44961e-06 22.5C-0.0225024 25.9519 0.283122 29.4 0.914997 32.8013C1.17187 33.6994 1.6725 34.5188 2.36812 35.1806C3.06375 35.8425 3.93 36.3206 4.8825 36.5738C8.45062 37.5 22.4887 37.5 22.4887 37.5C28.3775 37.567 34.2648 37.2727 40.1175 36.6188C41.0584 36.3757 41.9218 35.8969 42.6262 35.2275C43.3111 34.5783 43.8069 33.7552 44.0606 32.8463C44.7077 29.4506 45.0223 25.9999 45 22.5431C45.0487 19.0718 44.7344 15.6048 44.0625 12.1988V12.2006ZM18.0037 28.92V16.0819L29.7412 22.5019L18.0037 28.92Z" fill="#111111"/>
</g>
<defs>
<clipPath id="clip0_50_420">
<rect width="45" height="45" fill="white"/>
</clipPath>
</defs>
</svg>
